<svg xmlns="http://www.w3.org/2000/svg" xmlns:xlink="http://www.w3.org/1999/xlink" width="143" height="51" viewBox="0 0 143 51">
  <defs>
    <polygon id="dnevnik-logo-a" points=".339 .214 7.245 .214 7.245 20.622 .339 20.622"/>
  </defs>
  <g fill="none" fill-rule="evenodd">
    <path fill="#0273B2" d="M42.8428 44.6553065C42.8109816 44.9480978 42.7692885 45.3219755 42.7199151 45.7740043 42.6705417 46.2264 42.6226312 46.7158532 42.5772808 47.2412633 42.5322962 47.7666734 42.4986491 48.2928173 42.4774368 48.8185942 42.417823 50.3089683 42.5973959 50.3955583 41.4976491 50.2289827 40.9987949 50.1534 40.558823 50.0414935 40.1894368 49.8455655 39.6591299 49.5641482 39.2495136 49.1917381 38.9591248 48.7268676 38.6716619 48.2377813 38.4913575 47.7120043 38.419309 47.1495367 38.3472604 46.5870691 38.3414087 46.0246014 38.4028512 45.4625007L39.2304957 37.9225727C39.2915724 37.3604719 39.4210404 36.7980043 39.6163396 36.2359036 39.8120046 35.6738029 40.1027591 35.1432561 40.5028665 34.6582058 40.8887105 34.1900331 41.3864675 33.8205583 41.9778512 33.5398748 42.2302041 33.4195295 42.5015749 33.3160619 42.7930609 33.256623 44.423846 32.9227381 44.3112015 33.0577597 44.0405621 34.566846 43.9469355 35.0922561 43.8642808 35.6187669 43.7944266 36.144177 43.7253038 36.6695871 43.6649586 37.1586734 43.6152194 37.6110691 43.565846 38.0634647 43.5248844 38.4369755 43.4927003 38.7301338L43.2198665 40.8424144 49.9902399 40.8424144 50.3581632 37.8620331C50.4196056 37.2999324 50.5487079 36.7370978 50.7443729 36.1749971 50.9400379 35.6125295 51.2304266 35.0827165 51.630534 34.5972993 52.0167437 34.1287597 52.5145008 33.7592849 53.1058844 33.4789683 53.3578716 33.358623 53.6296082 33.2551554 53.9210941 33.1957165 55.5515136 32.8621986 55.4388691 32.9968532 55.1689611 34.5059396 55.0746031 35.0313496 54.9923141 35.5574935 54.9224598 36.0832705 54.8529714 36.6086806 54.7929918 37.0977669 54.7436184 37.5505295 54.6938793 38.0025583 54.6529176 38.3760691 54.6207335 38.6688604 54.5570967 39.2478388 55.2673422 32.7726734 53.9704675 44.5944 53.9386491 44.8879252 53.8976875 45.2607022 53.8479483 45.7130978 53.7982092 46.1654935 53.7506645 46.6545799 53.7053141 47.1803568 53.6599637 47.7061338 53.6263166 48.2319108 53.6054701 48.7576878 53.5458563 50.2480619 53.7254292 50.3350187 52.6256824 50.1680763 52.1268281 50.0921266 51.6868563 49.980954 51.3174701 49.784659 50.7875289 49.5036086 50.3775468 49.1308317 50.0871581 48.6659612 49.7993294 48.1768748 49.6193908 47.6510978 49.5469765 47.0886302 49.4749279 46.5261626 49.4694419 45.963695 49.5308844 45.4015942L49.6961939 43.8950763 42.9265519 43.8950763 42.8428 44.6553065zM61.8124266 41.2999468C62.1273192 41.3127885 62.4846363 41.3208604 62.8847437 41.3237957 63.2841197 41.3270978 63.6900788 41.3050835 64.1018895 41.2577525 64.1914931 41.2471122 64.2796338 41.2357381 64.3674087 41.2232633L64.3674087 44.068623C63.8012604 44.1251266 63.244621 44.1405367 62.698222 44.1144863 62.0922092 44.0858676 61.5099688 44.0179899 60.952598 43.9097525 61.0023371 44.2487741 61.0648767 44.5797237 61.1391197 44.9037022 61.2133627 45.2273137 61.311378 45.5421194 61.4338972 45.8481194 61.7528128 46.5742273 62.2275289 47.0732201 62.858777 47.3454647 63.2870455 47.5344216 63.789557 47.6100043 64.3674087 47.571846L64.3674087 50.7155007C62.1309765 50.9657309 60.3220813 50.4117022 58.9418205 49.0523137 57.554245 47.685954 56.8301018 45.7637309 56.7701223 43.284177L56.7686593 43.0258748C56.7628077 41.7468388 56.9204368 40.5591626 57.2422783 39.4639468 57.5641197 38.3679971 58.0377386 37.3905583 58.6638665 36.5305295 59.2896286 35.6708676 60.0433959 34.9440259 60.9248026 34.3500043 61.8065749 33.7559827 62.7918486 33.3347741 63.8809893 33.0863784 64.0261836 33.044918 64.171378 33.0159324 64.3165724 32.9990547L64.3674087 32.9931842 64.3674087 36.171695C63.7197028 36.2825007 63.1520916 36.5437381 62.6638435 36.9557741 62.2052194 37.3531338 61.8563141 37.799659 61.6160302 38.2949827 61.3519739 38.7928748 61.1727668 39.2999396 61.0784087 39.8154432 60.9836849 40.3305799 60.9379688 40.7976518 60.9397974 41.2159252L61.0487847 41.2034504C61.1457028 41.2416086 61.25469 41.2595871 61.376112 41.2581194 61.4968026 41.2562849 61.6427284 41.2702273 61.8124266 41.2999468zM64.3674087 50.7155007L64.3674087 47.571846C64.4449432 47.5667094 64.5239407 47.5597381 64.6040353 47.5501986 64.6771811 47.5417597 64.743378 47.5281842 64.804089 47.5087381 64.8640685 47.4892921 64.9309969 47.4757165 65.003777 47.4676446 65.3424419 47.4038029 65.6811069 47.309141 66.0201376 47.1840259 66.3584368 47.0589108 66.6912501 46.8974719 67.035401 46.7532777 68.1991504 46.2663928 69.1632118 45.6210043 70.6795238 46.8035439 70.8309355 46.9213209 70.9256593 47.0302921 70.6429509 47.3539036 69.111644 49.1128532 67.2087565 50.2495295 65.0187719 50.6410187L64.4014215 50.7118317 64.3674087 50.7155007zM80.5176312 32.9473209L80.5176312 36.2127885C80.3738997 36.2384719 80.2319969 36.2703928 80.0930199 36.308918 78.4487028 36.7635151 77.2425289 38.7062849 77.1788921 40.3702058 78.034332 40.4366158 79.3264522 40.5760403 80.5176312 40.467436L80.5176312 42.8871842C79.2320941 42.801695 77.9048639 42.9055295 77.1905954 43.0412849 77.2176593 46.0667957 78.7021529 47.505436 80.5176312 47.7285151L80.5176312 50.7844791C80.1072834 50.7918173 79.7159535 50.7738388 79.34291 50.7305439 79.1746747 50.7110978 79.0188742 50.6931194 78.874777 50.6758748 78.7306798 50.659364 78.5891427 50.6300115 78.4498 50.588918 75.2723473 49.7079755 73.7490864 47.5659755 73.1609944 44.1632849 73.0275033 42.8515942 72.9795928 41.6859324 73.2399918 40.3907525 73.7871223 37.9115655 74.8982066 35.9893424 76.5728793 34.6229827 77.7501606 33.6631554 79.064956 33.1047237 80.5176312 32.9473209zM64.3674087 41.2232633C64.9416031 41.1399755 65.4704471 41.0064216 65.9532092 40.8226014 66.5577591 40.5562273 67.0163831 40.1951914 67.3290813 39.7409612 67.5938691 39.3659827 67.7372348 38.9678892 67.7595442 38.5466806 67.7833166 38.4699971 67.7950199 38.3580906 67.7946542 38.2105942 67.7931913 37.9644 67.7555212 37.7105007 67.6812783 37.4481626 67.607401 37.1858245 67.4611095 36.9319252 67.2416721 36.6864647 67.0467386 36.4626518 66.7614701 36.2927741 66.385135 36.1760978 66.0091657 36.0594216 65.5062885 36.0252993 64.8765033 36.0729971 64.804089 36.081436 64.731309 36.0957453 64.6585289 36.116659 64.5861146 36.1372058 64.5133345 36.1515151 64.4409202 36.159954L64.3674087 36.171695 64.3674087 32.9931842 64.7890941 32.9447525C65.2974573 32.8856806 65.8303243 32.8739396 66.3876951 32.9080619 66.945066 32.9421842 67.4910992 33.0394144 68.0246977 33.1993856 68.5828 33.3564216 69.0926261 33.5930763 69.5545417 33.9089827 70.0164573 34.2248892 70.4063243 34.6358245 70.7234113 35.1406878 71.1871555 35.849918 71.4336568 36.7077453 71.4625494 37.7141698L71.4632808 37.8983568C71.4680353 38.8578173 71.278222 39.6796878 70.8938409 40.3639683 70.5339637 41.0944791 70.0157258 41.7083137 69.3398588 42.2043712 68.6881299 42.7228101 67.9508205 43.1337453 67.1286619 43.4379108 66.3065033 43.7417094 65.4470404 43.9453424 64.5510046 44.0488101 64.4895621 44.0561482 64.4284854 44.0623856 64.3674087 44.068623L64.3674087 41.2232633zM131.819521 45.4269108L131.774902 45.8294072C131.724066 46.2843712 131.674693 46.7767597 131.628245 47.3062058 131.581797 47.8352849 131.547419 48.3647309 131.526207 48.8938101 131.46513 50.3937237 131.649092 50.4814144 130.523012 50.3133712 130.011723 50.2374216 129.561145 50.1247813 129.182982 49.9277525 128.639874 49.6445007 128.220017 49.2695223 127.92268 48.8017165 127.628634 48.3093281 127.443941 47.779882 127.370063 47.2137453 127.29582 46.6476086 127.289969 46.0814719 127.353606 45.5153353L128.200634 37.9262417C128.263539 37.360105 128.395567 36.7939683 128.595621 36.2278317 128.796406 35.6620619 129.093744 35.1282129 129.503726 34.6398604 129.899445 34.1683856 130.408539 33.7963424 131.014552 33.5138245 131.272757 33.3931122 131.55071 33.2892777 131.849511 33.229105 133.519429 32.8926518 133.404225 33.029141 133.127002 34.5477669 133.030815 35.076846 132.946698 35.6062921 132.875015 36.1353712 132.803698 36.6644504 132.742255 37.1572058 132.691419 37.6125367 132.640948 38.0675007 132.598524 38.4435799 132.565974 38.7389396 132.513675 39.2082129 132.97559 35.0673065 132.461375 39.6719827L136.722483 35.0559324C137.063708 34.6857237 137.453575 34.3514719 137.890621 34.053177 138.328398 33.7541482 138.816281 33.5288676 139.359388 33.3945799 139.884209 33.2643281 140.435728 33.2643281 141.007728 33.3780691 141.252035 33.4261338 141.501097 33.4965799 141.741381 33.6092201 143.0858 34.237364 142.933657 34.2744216 141.942166 35.2115007 141.597283 35.5376806 141.260081 35.8708317 140.932023 36.2102201 140.604329 36.5496086 140.302969 36.8680835 140.028306 37.1660115 139.75401 37.4635727 139.527258 37.7094 139.349514 37.9020259 138.997682 38.2828748 142.929634 34.0223568 135.751107 41.8007741 135.572631 41.9937669 135.345879 42.2392273 135.071583 42.5367885L135.058416 42.5507309 137.759324 45.4768101C137.959012 45.692918 138.21356 45.9688317 138.521503 46.3027165 138.829813 46.6366014 139.167746 46.9943353 139.53567 47.3748173 139.903593 47.7556662 140.281757 48.1295439 140.669063 48.4953496 141.781611 49.5469036 141.95204 49.5879971 140.443774 50.2931914 140.173866 50.4194072 139.89445 50.4982921 139.620519 50.5525942 138.97903 50.6799108 138.359851 50.6799108 137.771028 50.5342489 137.162089 50.3830835 136.614227 50.1306518 136.123419 49.7952993 135.632611 49.4603137 135.195199 49.0853353 134.812281 48.6699971L131.819521 45.4269108zM93.9621913 44.6553065C93.9300072 44.9480978 93.8890455 45.3219755 93.8393064 45.7740043 93.789933 46.2264 93.7420225 46.7158532 93.6966721 47.2412633 93.6513217 47.7666734 93.6176747 48.2928173 93.5968281 48.8185942 93.5375801 50.3089683 93.7164215 50.3955583 92.6170404 50.2289827 92.1185519 50.1534 91.6782143 50.0414935 91.3084624 49.8455655 90.778887 49.5641482 90.3689049 49.1917381 90.0785161 48.7268676 89.7910532 48.2377813 89.6111146 47.7120043 89.5387003 47.1495367 89.4662859 46.5870691 89.4604343 46.0246014 89.5222425 45.4625007L90.3495212 37.9225727C90.4113294 37.3604719 90.540066 36.7980043 90.7360967 36.2359036 90.9313959 35.6738029 91.2221504 35.1432561 91.6218921 34.6582058 92.0081018 34.1900331 92.5054931 33.8205583 93.0976082 33.5398748 93.3492297 33.4195295 93.6206005 33.3160619 93.9124522 33.256623 95.5432373 32.9227381 95.4305928 33.0577597 95.1599535 34.566846 95.0659611 35.0922561 94.9836721 35.6187669 94.9138179 36.144177 94.8446951 36.6695871 94.7843499 37.1586734 94.7349765 37.6110691 94.6852373 38.0634647 94.6442757 38.4369755 94.6120916 38.7301338L94.3392578 40.8424144 101.109997 40.8424144 101.47792 37.8620331C101.538997 37.2999324 101.668099 36.7370978 101.863764 36.1749971 102.059429 35.6125295 102.349818 35.0827165 102.749925 34.5972993 103.136501 34.1287597 103.633526 33.7592849 104.22491 33.4789683 104.477263 33.358623 104.748634 33.2551554 105.040485 33.1957165 106.670905 32.8621986 106.55826 32.9968532 106.287987 34.5059396 106.193994 35.0313496 106.111705 35.5574935 106.041851 36.0832705 105.972363 36.6086806 105.912383 37.0977669 105.862644 37.5505295 105.813271 38.0025583 105.772309 38.3760691 105.740125 38.6688604 105.676488 39.2478388 106.386734 32.7726734 105.090225 44.5944 105.05804 44.8879252 105.017079 45.2607022 104.96734 45.7130978 104.917601 46.1654935 104.870056 46.6545799 104.824705 47.1803568 104.779355 47.7061338 104.745708 48.2319108 104.724861 48.7576878 104.665613 50.2480619 104.84482 50.3350187 103.745074 50.1680763 103.246585 50.0921266 102.805882 49.980954 102.436861 49.784659 101.90692 49.5036086 101.496938 49.1308317 101.206184 48.6659612 100.918721 48.1768748 100.738782 47.6510978 100.666368 47.0886302 100.594319 46.5261626 100.588468 45.963695 100.650276 45.4015942L100.815585 43.8950763 94.0452118 43.8950763 93.9621913 44.6553065zM125.000506 38.8347022C125.033787 38.5338388 125.07548 38.1518892 125.126682 37.6888532 125.177153 37.2254504 125.237864 36.724623 125.309913 36.1863712 125.38123 35.6477525 125.465713 35.1087669 125.5619 34.570882 125.726843 33.648846 125.871672 33.2342417 125.621514 33.1212345 125.451084 32.9876806 125.06012 33.0423496 124.293552 33.1968173 123.994751 33.256623 123.716432 33.3608245 123.458227 33.4815367 122.852214 33.7636878 122.454301 34.1364647 122.058217 34.6075727 121.648601 35.0959252 121.351263 35.6297741 121.150843 36.1959108 120.95079 36.7613137 120.818396 37.3278173 120.755491 37.893954 120.660035 38.7514144 120.451204 40.8651626 120.26834 42.6912561 120.036102 45.0163424 119.441792 47.0398317 116.282992 47.1869612 113.383493 47.3216158 112.54378 44.9216806 112.708723 42.8350835 112.921943 40.133918 113.212332 37.2419612 113.691071 34.570882 113.857112 33.6466446 114.066675 32.9869468 113.226961 33.1054576 112.608879 33.1920475 112.058823 33.2900115 111.578621 33.5189612 110.972974 33.8066158 110.468999 34.1885655 110.067429 34.6648101 109.663299 35.1652705 109.360475 35.7038892 109.160056 36.2799324 108.959636 36.8559755 108.827242 37.4320187 108.764703 38.0080619L108.368618 41.6143856C108.23147 42.8662705 108.125774 44.6013712 108.453833 45.6837453 109.612828 49.5039755 113.511498 50.6311122 115.655401 50.6311122 116.929235 50.6307453 118.083109 50.4050978 119.118854 49.9545367 119.653549 49.721918 120.155329 49.4419683 120.623462 49.1157885 120.89081 49.4261914 121.225086 49.6863281 121.626291 49.8954647 122.005186 50.0924935 122.455398 50.2051338 122.966687 50.2814504 124.092767 50.4491266 123.909171 50.3618029 123.969882 48.8615223 123.99146 48.3324432 124.025838 47.803364 124.072286 47.273918 124.118734 46.7444719 124.167741 46.2524504 124.218212 45.7971194 124.269048 45.3417885 124.310741 44.9660763 124.343657 44.6710835L124.620148 42.1948317C124.64904 42.0036734 124.67391 41.8106806 124.695488 41.6143856L125.000506 38.8347022zM80.5176312 50.7844791L80.5176312 47.7285151C81.0168512 47.7897885 81.5409407 47.7593353 82.0668588 47.6444935 84.3109714 47.1539396 84.4590916 43.8051842 82.3462757 43.1818101 81.803534 43.0214719 81.1660685 42.9301122 80.5176312 42.8871842L80.5176312 40.467436C82.0419893 40.3280115 83.4003064 39.7816878 83.4639432 38.1537237 83.4719893 37.9354144 83.4482169 37.7086662 83.3929918 37.4731122 83.2562092 36.8941338 82.8385468 36.4898029 82.2910506 36.2938748 81.7976824 36.1170259 81.145222 36.100882 80.5176312 36.2127885L80.5176312 32.9473209C81.0380634 32.8908173 81.5764164 32.8860475 82.13269 32.9326446 82.4552629 32.9480547 82.9621632 32.9950187 83.2737642 33.0893137 85.9194471 33.6767309 87.0279714 35.7578245 86.9566542 38.0330115 86.8988691 39.8723137 85.7318281 40.8563568 85.3617105 41.1230978 85.5050762 41.2331698 85.6425903 41.3487453 85.7735212 41.4705583 86.3616133 41.9666158 86.7668409 42.5804504 86.9884726 43.3109612 87.3158 44.1889683 87.2236363 45.0658748 87.0455263 45.9611266 86.8184087 46.9675511 86.4007463 47.8253784 85.7914419 48.5346086 85.3701223 49.0398388 84.8950404 49.4496734 84.3647335 49.7659468 83.8340609 50.0822201 83.2708384 50.3188748 82.6739688 50.4759108 82.1008716 50.635882 81.5288716 50.7327453 80.9572373 50.7672345 80.8083857 50.7764072 80.6617284 50.7819108 80.5176312 50.7844791zM35.0140803 41.3735482C33.5829831 45.7606489 29.9747018 49.0587712 25.0212696 50.0031885 20.1958425 50.9523755 15.6790905 50.3979799 13.0089038 48.8294547 10.9436327 47.6164619 10.1328118 46.3715482 10.145978 43.9936273 9.97371969 40.6085482 10.4952491 33.2568432 12.2130777 30.2882029 12.6259857 29.5745698 13.2586967 29.0172388 14.3551519 28.6562029 16.1073591 28.0794259 17.7026685 28.0904331 17.5128552 28.726282 16.6369345 31.6652029 14.5723949 40.6078144 15.6867708 43.1611165 16.4738194 44.9648288 19.6669985 45.5452748 22.5774691 45.3280662 26.1912363 45.058023 28.7502414 43.7386273 30.0628425 40.1557856 31.0492133 37.4634259 30.8085637 34.191354 29.2330036 31.4659727 26.2036711 26.2247137 17.5753949 25.4707209 12.5180957 27.1368432 11.693377 27.4079871 11.4925918 27.7781957 11.2471877 27.1874763 10.5720522 25.5598791 11.7010573 24.3747712 13.6653872 23.5822532 18.1038731 21.7917496 24.7158859 22.6873683 28.9696788 25.050246 35.3959013 28.6187784 36.9308655 35.4997424 35.0140803 41.3735482"/>
    <path fill="#BC75B0" d="M8.24872276,35.2162338 C7.84861535,34.8636367 7.44155908,34.4020683 7.19725217,34.0678165 C6.21965882,32.7308094 5.23913964,31.3963705 4.24618568,30.0707374 C4.0326,29.7856511 3.72538772,29.6216439 3.48108082,29.3743489 C3.10145422,28.9901978 2.33452072,28.6504424 1.80201944,28.6493417 C1.36095038,28.6475072 0.912201023,28.8401331 0.605354476,29.1707158 C0.192812276,29.6157734 -0.0375969309,30.256759 0.00519335038,30.8680252 C0.0618813299,31.6909964 0.408958056,32.3473921 0.795899233,33.0514856 C1.06946445,33.5504784 1.3675335,34.0340612 1.64951049,34.5275504 C2.43838772,35.9118885 3.20714987,37.3318165 4.11196317,38.6405719 C4.37126496,39.0159173 5.81479693,41.1825 6.92734425,42.3488957 C7.93236726,43.4026511 8.68686598,43.3494496 8.61920614,41.9559388 C8.5504491,40.5437158 8.48790946,38.6890036 8.56105524,38.0006871 C8.68796317,36.8056727 9.16523939,36.0241619 8.24872276,35.2162338"/>
    <path fill="#F6921E" d="M13.1139412,20.4072281 C13.2412148,20.6523216 13.3048517,20.8064223 13.6029207,20.9363072 C13.9196419,21.0746309 14.2272199,20.9696957 14.5304092,20.8761345 C14.8844348,20.7664295 15.1967673,20.7227676 15.5500614,20.6281058 C15.9289565,20.5272065 16.2943197,20.5433504 16.6856496,20.5081273 C17.0096854,20.4784079 17.3435959,20.5029906 17.5725422,20.2468899 C18.0154399,19.7523 17.7316343,18.2589906 17.6336189,17.6029619 C17.4368568,16.2806309 16.5261918,9.99735755 16.3254066,8.12576763 C16.1604629,6.5884295 16.0854885,4.74619209 14.6576829,3.68876763 C13.6939872,2.97476763 12.0529616,3.30608417 11.6287161,4.48091871 C11.1558286,5.78930719 11.1934987,7.0533 11.3013887,8.41378921 C11.4890077,10.7770338 11.890578,13.1622928 12.223757,15.5097604 C12.3759003,16.582595 12.5115857,17.637818 12.6677519,18.7099187 C12.7449207,19.2349619 12.9541176,20.0986597 13.1139412,20.4072281"/>
    <g transform="translate(20.115 .153)">
      <mask id="dnevnik-logo-b" fill="#fff">
        <use xlink:href="#dnevnik-logo-a"/>
      </mask>
      <path fill="#FFD10E" d="M5.43809616,0.234343165 C5.92341841,0.30882518 6.38460256,0.584738849 6.74850281,1.11418489 C7.12812941,1.66674604 7.24662558,2.08758777 7.24479693,2.73040791 C7.239311,4.61594029 5.74457698,19.4569403 5.6498532,19.8220122 C5.56171253,20.1606669 5.53867161,20.5044583 5.14039284,20.599854 C4.80465371,20.6809403 4.5058532,20.5136309 4.18913197,20.4483216 C3.86326752,20.3815446 3.49936726,20.3066957 3.16655396,20.2722065 C2.48227519,20.2021273 1.84261535,20.2090986 1.15431355,20.1419547 C0.448091049,20.0729763 0.292290537,19.8388899 0.349709974,19.2059763 C0.378236829,18.8926381 0.379699744,18.575264 0.399449105,18.2611921 C0.592553964,15.1586309 0.930121739,12.0582712 1.34632123,8.97515612 C1.55405524,7.43341511 1.78300153,5.8916741 2.0964312,4.36534317 C2.27819847,3.48183237 2.42119847,2.42991151 2.9189555,1.63996187 C3.51765371,0.690407914 4.5135335,0.0930841727 5.43809616,0.234343165" mask="url(#dnevnik-logo-b)"/>
    </g>
    <path fill="#BED63A" d="M35.1871432,5.17936187 C35.5832276,5.21275036 35.9394476,5.38813165 36.2711637,5.64459928 C36.9909182,6.20009568 36.8534041,8.00637626 36.6720026,8.92327554 C36.2243504,11.185254 33.0750588,21.7033619 32.8943887,22.1282396 C32.7177417,22.5435777 32.4123581,23.5533043 31.9910384,23.6688799 C31.4706061,23.8108727 30.9370077,23.4105777 30.5599412,23.1555777 C30.1539821,22.8814986 29.753509,22.640441 29.3168286,22.4353403 C28.9825524,22.2786712 28.7561662,22.1748367 28.4006777,22.0640309 C28.1227238,21.9770741 27.7145703,21.8640669 27.6436189,21.5481604 C27.5810793,21.2704122 27.8652506,20.4588151 27.9917928,20.0937432 C28.2068414,19.4733043 28.3692251,19.0088007 28.5498951,18.3773547 C29.0015703,16.7974554 29.5329744,15.2270957 30.0581611,13.668477 C30.5347059,12.2544194 31.0288056,10.8454986 31.5419233,9.44318201 C31.7884246,8.76880791 31.9939642,8.03939784 32.3256803,7.39731151 C32.7327366,6.60993022 33.0724987,5.99426115 33.8752737,5.5381964 C34.2739182,5.31181511 34.7252276,5.14083669 35.1871432,5.17936187"/>
    <path fill="#44C2EA" d="M42.8499317,16.0269151 C42.0336248,14.928764 40.847566,15.5249871 40.1142795,16.3259439 C39.2994355,17.216059 35.356878,23.4325554 34.7643972,24.3094619 C34.4630366,24.7552532 34.1294918,25.1753612 34.2644458,25.7543396 C34.4045199,26.3568 34.8525379,26.9174331 35.1835225,27.4278 C35.3513921,27.6875698 35.5199931,27.9304619 35.6571414,28.2071094 C35.772346,28.4382604 35.9127859,28.6371237 36.1600187,28.7475626 C36.4156632,28.8624043 36.7254355,28.8000302 37.1273716,28.4195482 C37.6170826,27.9557784 37.9231977,27.3353396 38.3046529,26.7849799 C39.1926427,25.505577 39.9928575,24.1623324 40.7667399,22.8084475 C41.2868064,21.8974187 41.7856606,20.9746489 42.2867092,20.0529799 C42.8568806,19.0043612 43.6929368,17.1602892 42.8499317,16.0269151"/>
  </g>
</svg>
